{
  "asset": {
    "generator": "Khronos glTF Blender I/O v1.5.17",
    "version": "2.0"
  },
  "scene": 0,
  "scenes": [
    {
      "name": "Scene",
      "nodes": [
        0
      ]
    }
  ],
  "nodes": [
    {
      "mesh": 0,
      "name": "sphere_gltf"
    }
  ],
  "materials": [
    {
      "doubleSided": true,
      "name": "ground_grey",
      "normalTexture": {
        "index": 0
      },
      "pbrMetallicRoughness": {
        "baseColorTexture": {
          "index": 1
        },
        "metallicFactor": 0,
        "metallicRoughnessTexture": {
          "index": 2
        }
      }
    }
  ],
  "meshes": [
    {
      "name": "Sphere.001",
      "primitives": [
        {
          "attributes": {
            "POSITION": 0,
            "NORMAL": 1,
            "TEXCOORD_0": 2
          },
          "indices": 3,
          "material": 0
        }
      ]
    }
  ],
  "textures": [
    {
      "sampler": 0,
      "source": 0
    },
    {
      "sampler": 0,
      "source": 1
    },
    {
      "sampler": 0,
      "source": 2
    }
  ],
  "images": [
    {
      "mimeType": "image/jpeg",
      "name": "ground_grey_nor_gl_4k",
      "uri": "textures/ground_grey_nor_gl_1k.jpg"
    },
    {
      "mimeType": "image/jpeg",
      "name": "ground_grey_diff_4k",
      "uri": "textures/ground_grey_diff_1k.jpg"
    },
    {
      "mimeType": "image/jpeg",
      "name": "ground_grey_rough_4k",
      "uri": "textures/ground_grey_rough_1k.jpg"
    }
  ],
  "accessors": [
    {
      "bufferView": 0,
      "componentType": 5126,
      "count": 53918,
      "max": [
        0.49862533807754517,
        0.5038445591926575,
        0.5059418678283691
      ],
      "min": [
        -0.49862515926361084,
        -0.5040180087089539,
        -0.5059432983398438
      ],
      "type": "VEC3"
    },
    {
      "bufferView": 1,
      "componentType": 5126,
      "count": 53918,
      "type": "VEC3"
    },
    {
      "bufferView": 2,
      "componentType": 5126,
      "count": 53918,
      "type": "VEC2"
    },
    {
      "bufferView": 3,
      "componentType": 5123,
      "count": 322170,
      "type": "SCALAR"
    }
  ],
  "bufferViews": [
    {
      "buffer": 0,
      "byteLength": 647016,
      "byteOffset": 0
    },
    {
      "buffer": 0,
      "byteLength": 647016,
      "byteOffset": 647016
    },
    {
      "buffer": 0,
      "byteLength": 431344,
      "byteOffset": 1294032
    },
    {
      "buffer": 0,
      "byteLength": 644340,
      "byteOffset": 1725376
    }
  ],
  "samplers": [
    {
      "magFilter": 9729,
      "minFilter": 9987
    }
  ],
  "buffers": [
    {
      "byteLength": 2369716,
      "uri": "ground_grey.bin"
    }
  ]
}