{
  "accessors": [
    {
      "name": "13020_Aquarium_Castle_1_0_positions",
      "componentType": 5126,
      "count": 37369,
      "min": [
        -4.374899864196777,
        -4.60699987411499,
        0.004900000058114529
      ],
      "max": [
        4.374899864196777,
        4.60699987411499,
        20.276100158691406
      ],
      "type": "VEC3",
      "bufferView": 0,
      "byteOffset": 0
    },
    {
      "name": "13020_Aquarium_Castle_1_0_normals",
      "componentType": 5126,
      "count": 37369,
      "min": [
        -0.9999999403953552,
        -1,
        -1
      ],
      "max": [
        0.9999985098838806,
        1,
        0.9999995827674866
      ],
      "type": "VEC3",
      "bufferView": 1,
      "byteOffset": 0
    },
    {
      "name": "13020_Aquarium_Castle_1_0_texcoords",
      "componentType": 5126,
      "count": 37369,
      "min": [
        0.006599999964237213,
        0.00860000029206276
      ],
      "max": [
        0.9843000173568726,
        0.9947999715805054
      ],
      "type": "VEC2",
      "bufferView": 2,
      "byteOffset": 0
    },
    {
      "name": "13020_Aquarium_Castle_1_0_indices",
      "componentType": 5123,
      "count": 211095,
      "min": [
        0
      ],
      "max": [
        37368
      ],
      "type": "SCALAR",
      "bufferView": 3,
      "byteOffset": 0
    }
  ],
  "asset": {
    "generator": "obj2gltf",
    "version": "2.0"
  },
  "buffers": [
    {
      "name": "13020_Aquarium_Castle_v1_L1",
      "byteLength": 2294940,
      "uri": "data:application/octet-stream;base64,"
    }
  ],
  "bufferViews": [
    {
      "name": "bufferView_0",
      "buffer": 0,
      "byteLength": 448428,
      "byteOffset": 0,
      "byteStride": 12,
      "target": 34962
    },
    {
      "name": "bufferView_1",
      "buffer": 0,
      "byteLength": 448428,
      "byteOffset": 448428,
      "byteStride": 12,
      "target": 34962
    },
    {
      "name": "bufferView_2",
      "buffer": 0,
      "byteLength": 298952,
      "byteOffset": 896856,
      "byteStride": 8,
      "target": 34962
    },
    {
      "name": "bufferView_3",
      "buffer": 0,
      "byteLength": 422192,
      "byteOffset": 1195808,
      "target": 34963
    },
    {
      "buffer": 0,
      "byteOffset": 1618000,
      "byteLength": 676938
    }
  ],
  "images": [
    {
      "name": "13020_Aquarium_Castle_diff",
      "mimeType": "image/jpeg",
      "bufferView": 4
    }
  ],
  "materials": [
    {
      "name": "13020_Aquarium_Castle",
      "pbrMetallicRoughness": {
        "baseColorTexture": {
          "index": 0
        },
        "baseColorFactor": [
          1,
          1,
          1,
          1
        ],
        "metallicFactor": 0,
        "roughnessFactor": 0.9009
      },
      "emissiveFactor": [
        0,
        0,
        0
      ],
      "alphaMode": "OPAQUE",
      "doubleSided": false
    }
  ],
  "meshes": [
    {
      "name": "13020_Aquarium_Castle_1",
      "primitives": [
        {
          "attributes": {
            "POSITION": 0,
            "NORMAL": 1,
            "TEXCOORD_0": 2
          },
          "indices": 3,
          "material": 0,
          "mode": 4
        }
      ]
    }
  ],
  "nodes": [
    {
      "name": "13020_Aquarium_Castle",
      "mesh": 0
    }
  ],
  "samplers": [
    {
      "wrapS": 10497,
      "wrapT": 10497
    }
  ],
  "scene": 0,
  "scenes": [
    {
      "nodes": [
        0
      ]
    }
  ],
  "textures": [
    {
      "name": "13020_Aquarium_Castle_diff",
      "sampler": 0,
      "source": 0
    }
  ]
}
